PathFileType	4	(X/Y/Z)	1H_rest_med_right.trc
DataRate	CameraRate	NumFrames	NumMarkers	Units	OrigDataRate	OrigDataStartFrame	OrigNumFrames
250.00	250.00	21	18	mm	250.00	1	29281
Frame#	Time	c7	r_should	l_should	clavicle	r_upa	r_elb_l	r_elb_m	r_low	r_wri_l	r_wri_m	r_met	l_upa	l_elb_l	l_elb_m	l_low	l_wri_l	l_wri_m	l_met
	X1	Y1	Z1	X2	Y2	Z2	X3	Y3	Z3	X4	Y4	Z4	X5	Y5	Z5	X6	Y6	Z6	X7	Y7	Z7	X8	Y8	Z8	X9	Y9	Z9	X10	Y10	Z10	X11	Y11	Z11	X12	Y12	Z12	X13	Y13	Z13	X14	Y14	Z14	X15	Y15	Z15	X16	Y16	Z16	X17	Y17	Z17	X18	Y18	Z18
1	0.00000	662.82715	1418.79578	290.62656	727.66913	1344.18799	431.18481	693.64441	1374.81738	114.48624	777.83099	1268.88965	259.83716	733.58044	1130.04504	479.15018	731.80420	1037.56311	492.80554	669.81244	1008.88611	425.15756	747.75745	848.36218	490.92850	760.09613	779.41437	471.65549	687.79358	770.11511	487.33203	780.03607	705.09430	510.17261	669.89087	1190.67603	32.51693	673.54260	1082.39807	16.95032	620.33698	1046.90698	78.16734	707.16095	917.53088	16.39871	733.64594	843.83234	50.12255	669.04688	825.77661	20.44521	761.60022	757.99921	20.83460
2	0.00400	662.77960	1418.81812	290.58411	727.66180	1344.20703	431.12488	693.56677	1374.82141	114.42689	777.78625	1268.88525	259.77368	733.52625	1130.07971	479.13882	731.73895	1037.60461	492.82425	669.75250	1008.93726	425.17947	747.69189	848.39703	490.93677	760.03107	779.44818	471.66660	687.74286	770.17590	487.35458	780.00500	705.16638	510.18311	669.69373	1190.70874	32.23660	673.49524	1082.39856	16.91401	620.30695	1046.91272	78.14622	707.16522	917.53387	16.39020	733.68591	843.86719	50.12647	669.10217	825.79968	20.45191	761.66663	758.02838	20.86162
3	0.00800	662.73138	1418.84106	290.52728	727.66241	1344.23157	431.05542	693.49231	1374.83215	114.36502	777.72931	1268.88269	259.71387	733.46069	1130.09814	479.11261	731.66913	1037.62537	492.81335	669.68274	1008.96539	425.16119	747.62915	848.43048	490.94382	759.97076	779.47797	471.66992	687.68817	770.19446	487.32074	779.94147	705.20947	510.16367	669.58197	1190.69678	32.14062	673.44965	1082.39514	16.87711	620.26422	1046.90710	78.10021	707.16479	917.53900	16.38187	733.70197	843.88361	50.11521	669.13452	825.80121	20.43492	761.73181	758.05981	20.88290
4	0.01200	662.68219	1418.85754	290.46661	727.65997	1344.25403	430.98608	693.42023	1374.83765	114.30251	777.66980	1268.87988	259.64926	733.39264	1130.10132	479.07346	731.59546	1037.63245	492.78397	669.60767	1008.97357	425.11801	747.57184	848.46106	490.94958	759.91858	779.51135	471.67056	687.62585	770.17456	487.25433	779.85895	705.22308	510.11789	669.47363	1190.64709	32.09359	673.40186	1082.38745	16.83964	620.19983	1046.88513	78.03388	707.16162	917.54523	16.37632	733.70209	843.88959	50.10051	669.15070	825.78406	20.41057	761.78925	758.08514	20.90645
5	0.01600	662.63757	1418.85559	290.42050	727.64514	1344.26233	430.92783	693.34583	1374.82605	114.25227	777.61200	1268.87036	259.58057	733.32544	1130.08850	479.04248	731.52576	1037.62866	492.75946	669.52777	1008.95789	425.08258	747.51953	848.48340	490.95242	759.86603	779.53546	471.67142	687.55377	770.13202	487.18741	779.78351	705.22198	510.07211	669.46289	1190.61414	32.19122	673.34485	1082.37476	16.80666	620.12866	1046.84521	77.97440	707.14996	917.54028	16.37473	733.69397	843.88196	50.09184	669.15155	825.74890	20.40180	761.83661	758.10181	20.93022
6	0.02000	662.58868	1418.83618	290.39020	727.62964	1344.24829	430.87735	693.27246	1374.80420	114.21272	777.56372	1268.85583	259.52072	733.26556	1130.07288	479.02179	731.46368	1037.62097	492.74985	669.43848	1008.93805	425.08429	747.47003	848.49591	490.95709	759.81390	779.54724	471.66379	687.48590	770.09711	487.15540	779.73102	705.22040	510.04303	669.57355	1190.59937	32.44805	673.28259	1082.35095	16.78242	620.06628	1046.79773	77.93659	707.12921	917.52887	16.37630	733.69287	843.87024	50.09865	669.14929	825.70801	20.42088	761.87354	758.11176	20.95559
7	0.02400	662.53937	1418.81702	290.35938	727.60931	1344.22607	430.83093	693.20105	1374.77612	114.18085	777.51233	1268.83582	259.46375	733.21881	1130.06958	479.01874	731.41504	1037.61987	492.75641	669.34412	1008.93793	425.11838	747.42236	848.50275	490.95300	759.76355	779.55377	471.65997	687.42999	770.09119	487.17746	779.70068	705.24072	510.04874	669.46588	1190.56677	32.37338	673.21008	1082.32593	16.76371	620.01257	1046.76733	77.92775	707.10376	917.51764	16.38220	733.70856	843.88464	50.11558	669.15448	825.68805	20.46424	761.90448	758.12213	20.98566
8	0.02800	662.49719	1418.80652	290.33121	727.59070	1344.21033	430.78635	693.13727	1374.75403	114.15334	777.45807	1268.82092	259.40649	733.19543	1130.08777	479.01874	731.38525	1037.63794	492.77698	669.27002	1008.95367	425.17285	747.37799	848.50787	490.94614	759.71912	779.56439	471.65332	687.39496	770.12372	487.24329	779.69635	705.29187	510.08893	669.23395	1190.53625	32.09686	673.14343	1082.30725	16.74505	619.98541	1046.76221	77.93918	707.08228	917.51862	16.38917	733.74243	843.92297	50.14833	669.17065	825.69403	20.51715	761.93634	758.14038	21.01266
9	0.03200	662.46942	1418.80627	290.31204	727.58014	1344.20544	430.75000	693.07971	1374.74463	114.12695	777.40747	1268.81506	259.34756	733.17859	1130.11597	479.02246	731.36877	1037.66602	492.80524	669.23053	1008.98102	425.22675	747.33514	848.51654	490.93433	759.67627	779.57550	471.64691	687.37683	770.18207	487.31931	779.71161	705.35730	510.14108	669.16321	1190.54700	32.01475	673.08441	1082.29968	16.71905	619.97540	1046.77014	77.95093	707.06342	917.53009	16.39261	733.78027	843.97888	50.18160	669.20203	825.72235	20.56516	761.97040	758.16833	21.03796
10	0.03600	662.44653	1418.81702	290.28607	727.57458	1344.20862	430.71854	693.03339	1374.74695	114.10266	777.35651	1268.79944	259.29730	733.16388	1130.13452	479.02298	731.35950	1037.69629	492.82205	669.21844	1009.00629	425.26160	747.29218	848.51849	490.92255	759.63031	779.57953	471.63730	687.35944	770.24329	487.37753	779.72125	705.41785	510.17679	669.13269	1190.57336	31.98043	673.03156	1082.30713	16.70388	619.96460	1046.79468	77.95320	707.04688	917.55341	16.39666	733.80859	844.02985	50.21446	669.23669	825.76520	20.59356	762.00476	758.21094	21.06445
11	0.04000	662.42242	1418.83667	290.26706	727.57404	1344.21729	430.68195	692.99176	1374.75818	114.07791	777.30444	1268.78955	259.25485	733.14130	1130.14148	479.00543	731.33850	1037.70850	492.82135	669.19604	1009.02942	425.26596	747.25177	848.52051	490.92352	759.58441	779.58081	471.63062	687.33075	770.28076	487.39279	779.70868	705.46503	510.18381	669.10791	1190.59729	31.96194	672.98462	1082.31787	16.68977	619.93073	1046.82214	77.94440	707.03497	917.58295	16.40656	733.81787	844.07343	50.23120	669.25635	825.80121	20.60551	762.03680	758.25598	21.09170
12	0.04400	662.39612	1418.85547	290.24744	727.57544	1344.22070	430.64755	692.94989	1374.76965	114.05538	777.25696	1268.78662	259.21811	733.11279	1130.12610	478.97485	731.30469	1037.69775	492.78854	669.15259	1009.03082	425.23923	747.21442	848.52277	490.91843	759.54889	779.57892	471.62592	687.28900	770.27441	487.36252	779.66754	705.47205	510.15860	669.06677	1190.59509	31.95058	672.93237	1082.33264	16.67343	619.86353	1046.83667	77.90928	707.02051	917.61517	16.41718	733.80103	844.10651	50.23779	669.25623	825.81982	20.61154	762.06384	758.30585	21.12294
13	0.04800	662.36725	1418.86682	290.23251	727.57043	1344.22021	430.61798	692.90631	1374.78149	114.03612	777.21344	1268.77783	259.17709	733.07159	1130.09290	478.94174	731.26044	1037.66992	492.74719	669.09784	1009.00769	425.20068	747.18286	848.52020	490.90851	759.51233	779.57861	471.61954	687.24048	770.22839	487.30630	779.60919	705.44836	510.11145	669.08142	1190.58472	32.05841	672.87128	1082.35315	16.66277	619.76996	1046.83899	77.86163	706.99542	917.65198	16.42772	733.76520	844.13037	50.24141	669.23047	825.81610	20.61330	762.07965	758.35498	21.15839
14	0.05200	662.33600	1418.87061	290.22748	727.56146	1344.20837	430.59070	692.85876	1374.78870	114.02849	777.16650	1268.77405	259.14203	733.02576	1130.05237	478.91098	731.21429	1037.63574	492.71594	669.03473	1008.97119	425.17642	747.15009	848.51672	490.90366	759.47546	779.58008	471.61108	687.18848	770.16125	487.25128	779.54572	705.41370	510.08130	669.18665	1190.58374	32.31568	672.80707	1082.36731	16.65312	619.66864	1046.83240	77.83311	706.96368	917.68115	16.43760	733.71661	844.13983	50.25534	669.20007	825.79346	20.62869	762.08496	758.39807	21.19556
15	0.05600	662.30334	1418.86145	290.22250	727.53680	1344.17981	430.58093	692.80951	1374.78894	114.02877	777.12415	1268.75916	259.11008	732.99786	1130.01978	478.88934	731.17712	1037.59875	492.69879	668.96948	1008.93262	425.17722	747.11542	848.50629	490.90143	759.44312	779.57178	471.60822	687.14050	770.10260	487.22855	779.50330	705.38922	510.07986	669.17200	1190.58105	32.37590	672.73798	1082.37500	16.64741	619.57605	1046.82153	77.81207	706.92126	917.70135	16.45193	733.67065	844.15314	50.28475	669.16595	825.77649	20.65727	762.07721	758.43066	21.23769
16	0.06000	662.27246	1418.84607	290.22696	727.50439	1344.14221	430.57703	692.75458	1374.78760	114.02921	777.07825	1268.73999	259.08810	732.98608	1130.00110	478.87750	731.15350	1037.57349	492.69858	668.91718	1008.90686	425.19565	747.08160	848.48584	490.89789	759.41492	779.55414	471.60925	687.10242	770.07190	487.25293	779.48547	705.38751	510.09918	669.12653	1190.57568	32.39241	672.66718	1082.37695	16.64458	619.50867	1046.82043	77.80565	706.87427	917.71759	16.47511	733.64581	844.18829	50.32549	669.14264	825.78638	20.69757	762.06433	758.45514	21.28975
17	0.06400	662.24323	1418.83105	290.24808	727.47284	1344.09863	430.58008	692.70319	1374.78589	114.03490	777.03210	1268.71887	259.07123	732.98358	1129.99084	478.87244	731.14740	1037.55786	492.70724	668.87146	1008.90088	425.23126	747.05273	848.45563	490.89047	759.38342	779.51978	471.60666	687.07800	770.07471	487.31119	779.49988	705.40918	510.14841	669.01514	1190.57703	32.28537	672.60083	1082.37939	16.65157	619.46259	1046.84924	77.82436	706.83551	917.73224	16.49950	733.63232	844.23785	50.37362	669.13452	825.82404	20.74699	762.04919	758.47498	21.34783
18	0.06800	662.21869	1418.81860	290.28384	727.45752	1344.06091	430.58759	692.66266	1374.78748	114.04396	776.98676	1268.69824	259.05508	732.98975	1129.97937	478.87543	731.14453	1037.54492	492.72046	668.85413	1008.89264	425.25949	747.02045	848.41797	490.88275	759.34650	779.48572	471.60413	687.06378	770.09473	487.37784	779.53009	705.44122	510.20645	668.82697	1190.60046	32.03246	672.54114	1082.38770	16.65422	619.43030	1046.88745	77.84576	706.79340	917.75336	16.52463	733.62354	844.29730	50.42774	669.13031	825.87372	20.80036	762.02728	758.50079	21.40103
19	0.07200	662.20020	1418.81689	290.31635	727.45142	1344.02319	430.59546	692.62360	1374.79663	114.05829	776.93500	1268.67798	259.04401	732.98877	1129.95898	478.87564	731.13965	1037.52124	492.72086	668.85382	1008.87561	425.26443	746.98413	848.37292	490.87411	759.30829	779.44781	471.60284	687.05292	770.09375	487.42236	779.54926	705.46454	510.24866	668.75848	1190.63599	31.97149	672.48297	1082.40808	16.65448	619.38757	1046.92297	77.85696	706.74744	917.78009	16.55036	733.60455	844.35236	50.47496	669.12604	825.92303	20.83576	762.00543	758.53467	21.45479
20	0.07600	662.18567	1418.82043	290.33536	727.45679	1343.98486	430.60037	692.59186	1374.81433	114.06448	776.88037	1268.65710	259.04340	732.97125	1129.91394	478.86478	731.12677	1037.47754	492.69980	668.85590	1008.84247	425.23453	746.95264	848.32611	490.86456	759.27484	779.39868	471.59592	687.03259	770.05273	487.41687	779.54175	705.45618	510.26328	668.71313	1190.66296	31.95702	672.43079	1082.43591	16.65689	619.32245	1046.95325	77.84940	706.70447	917.81494	16.57191	733.56604	844.39148	50.50971	669.10706	825.96130	20.84584	761.98468	758.57654	21.50577
21	0.08000	662.17108	1418.82520	290.34805	727.46606	1343.94958	430.60516	692.56189	1374.83130	114.07368	776.83228	1268.63477	259.03970	732.94574	1129.84436	478.83749	731.10724	1037.41199	492.65726	668.84094	1008.78833	425.18054	746.92841	848.27399	490.84857	759.24908	779.34698	471.58203	687.00183	769.97113	487.36017	779.50787	705.40704	510.24197	668.72144	1190.65906	32.06734	672.38165	1082.45874	16.66104	619.23529	1046.96790	77.82592	706.66052	917.85010	16.59231	733.50641	844.40790	50.52553	669.06085	825.97235	20.84243	761.96344	758.61646	21.55373
